<svg xmlns="http://www.w3.org/2000/svg" version="1.1" id="Layer_1" x="0" y="0" viewBox="0 0 496 485" enable-background="new 0 0 496 485" xml:space="preserve"><path fill="#DEDEDE" d="M450.7 204.7C432.2 88.4 339.1 0 227 0S21.8 88.4 3.3 204.7C1.1 218.5 0 232.6 0 247c0 13.6 1 26.8 2.9 39.8C36.8 331.3 124.3 363 227 363s190.2-31.7 224.1-76.2c1.9-13 2.9-26.3 2.9-39.8C454 232.6 452.9 218.5 450.7 204.7z"/><path fill="#C191BC" d="M423.3 232.5c-66.8-52.1-145.8-67-193.9-41 -48.1-26-127.1-11.1-193.9 41 -12.9 10.1-24.6 20.9-34.9 32.2 0.5 7.5 1.3 14.8 2.4 22.1 33.2 43.6 117.9 74.9 218 76.2 2 0 4 0 6.1 0 102.7 0 190.2-31.7 224.1-76.2 1.3-8.8 2.2-17.8 2.6-26.9C444.5 250.3 434.4 241.1 423.3 232.5z"/><linearGradient id="SVGID_1_" gradientUnits="userSpaceOnUse" x1="-13.18" y1="249.85" x2="105.49" y2="320.79"><stop offset="0" stop-color="#000000"/><stop offset="1" style="stop-color:#000000;stop-opacity:0"/></linearGradient><path opacity="0.3" fill="url(#SVGID_1_)" d="M56 271c-20.3 0-38.9 5.6-53.2 14.8 0 0.3 0.1 0.6 0.1 1 22.9 30.1 70.3 54.3 130.4 66.9 3-6.5 4.7-13.4 4.7-20.7C138 298.8 101.3 271 56 271z"/><path fill="#6CB4E3" d="M49.4 93.2l36.1 23.4 7.2-64.5 46.8 30.5 6.4-57.3L196 72.9l21.8-72.6C130.4 4 55.8 61.5 21 143.2l29.9 14.2L49.4 93.2z"/><path fill="#6CB4E3" d="M15.6 300.6c10.7 9.9 24.3 19 40.1 27L54 286 15.6 300.6z"/><path fill="#6CB4E3" d="M59.9 329.6c12.6 6 26.6 11.4 41.6 16l-5.1-40.5L59.9 329.6z"/><path fill="#6CB4E3" d="M295.6 18.4l6.4 57.3 46.8-30.5 7.2 64.5 36.1-23.4 -1.5 64.1 37.6-17.8C390.2 53.7 314.4 0 227 0c-0.4 0-0.9 0-1.3 0l19.8 65.8L295.6 18.4z"/></svg>