<svg xmlns="http://www.w3.org/2000/svg" version="1.1" x="0" y="0" viewBox="0 0 870 1145" enable-background="new 0 0 870 1145" xml:space="preserve"><path fill="#FFFFFF" d="M720.9 192L720.9 192c0 0-10.9-25.7 13.1-42.7 -22.5-8-37.8 5-46.4 9.9 26.1-49.6-15.6-76.8-15.6-76.8s-18.4 37.4-38 17.8c-25.5-23.7 12-48.8 12-48.8s-24.5-22-62 7c-11.2-22.5-37.5-68.9-67-54 38 42.5-7 69-11 47 -6-33-17-44.5-33-51.4 13 16.1-1 45.9-22 40.4s-16-26-6-40c-37-4-49.5 21-64 40 -32-36.5-59.5-40-112-40 49.5 40.5 26 65 13 71s-22-13.5-22-23c-26.5 19.5-37 48.5-37 65 -6.2-9.5-34-27-52-27 15 22.5 12.6 71.8 12.6 71.8 -4.9-26.7-34.6-38-49.6-22 22 17 7.7 63.8 7.7 63.8h0C54.6 299 0 442.4 0 601.2c0 299.9 194.8 543.1 435 543.1s435-243.2 435-543C870 438 812.3 291 720.9 192z"/></svg>